<svg id="my-svg" width="100%" xmlns="http://www.w3.org/2000/svg" xmlns:xlink="http://www.w3.org/1999/xlink" class="flowchart" style="max-width: 2015.13px; background-color: transparent;" viewBox="0 0 2015.127197265625 395.29852294921875" role="graphics-document document" aria-roledescription="flowchart-v2"><style>#my-svg{font-family:"trebuchet ms",verdana,arial,sans-serif;font-size:16px;fill:#000000;}@keyframes edge-animation-frame{from{stroke-dashoffset:0;}}@keyframes dash{to{stroke-dashoffset:0;}}#my-svg .edge-animation-slow{stroke-dasharray:9,5!important;stroke-dashoffset:900;animation:dash 50s linear infinite;stroke-linecap:round;}#my-svg .edge-animation-fast{stroke-dasharray:9,5!important;stroke-dashoffset:900;animation:dash 20s linear infinite;stroke-linecap:round;}#my-svg .error-icon{fill:#552222;}#my-svg .error-text{fill:#552222;stroke:#552222;}#my-svg .edge-thickness-normal{stroke-width:1px;}#my-svg .edge-thickness-thick{stroke-width:3.5px;}#my-svg .edge-pattern-solid{stroke-dasharray:0;}#my-svg .edge-thickness-invisible{stroke-width:0;fill:none;}#my-svg .edge-pattern-dashed{stroke-dasharray:3;}#my-svg .edge-pattern-dotted{stroke-dasharray:2;}#my-svg .marker{fill:#666;stroke:#666;}#my-svg .marker.cross{stroke:#666;}#my-svg svg{font-family:"trebuchet ms",verdana,arial,sans-serif;font-size:16px;}#my-svg p{margin:0;}#my-svg .label{font-family:"trebuchet ms",verdana,arial,sans-serif;color:#000000;}#my-svg .cluster-label text{fill:#333;}#my-svg .cluster-label span{color:#333;}#my-svg .cluster-label span p{background-color:transparent;}#my-svg .label text,#my-svg span{fill:#000000;color:#000000;}#my-svg .node rect,#my-svg .node circle,#my-svg .node ellipse,#my-svg .node polygon,#my-svg .node path{fill:#eee;stroke:#999;stroke-width:1px;}#my-svg .rough-node .label text,#my-svg .node .label text,#my-svg .image-shape .label,#my-svg .icon-shape .label{text-anchor:middle;}#my-svg .node .katex path{fill:#000;stroke:#000;stroke-width:1px;}#my-svg .rough-node .label,#my-svg .node .label,#my-svg .image-shape .label,#my-svg .icon-shape .label{text-align:center;}#my-svg .node.clickable{cursor:pointer;}#my-svg .root .anchor path{fill:#666!important;stroke-width:0;stroke:#666;}#my-svg .arrowheadPath{fill:#333333;}#my-svg .edgePath .path{stroke:#666;stroke-width:1px;}#my-svg .flowchart-link{stroke:#666;fill:none;}#my-svg .edgeLabel{background-color:white;text-align:center;}#my-svg .edgeLabel p{background-color:white;}#my-svg .edgeLabel rect{opacity:0.5;background-color:white;fill:white;}#my-svg .labelBkg{background-color:rgba(255, 255, 255, 0.5);}#my-svg .cluster rect{fill:hsl(0, 0%, 98.9215686275%);stroke:#707070;stroke-width:1px;}#my-svg .cluster text{fill:#333;}#my-svg .cluster span{color:#333;}#my-svg div.mermaidTooltip{position:absolute;text-align:center;max-width:200px;padding:2px;font-family:"trebuchet ms",verdana,arial,sans-serif;font-size:12px;background:hsl(-160, 0%, 93.3333333333%);border:1px solid #707070;border-radius:2px;pointer-events:none;z-index:100;}#my-svg .flowchartTitleText{text-anchor:middle;font-size:18px;fill:#000000;}#my-svg rect.text{fill:none;stroke-width:0;}#my-svg .icon-shape,#my-svg .image-shape{background-color:white;text-align:center;}#my-svg .icon-shape p,#my-svg .image-shape p{background-color:white;padding:2px;}#my-svg .icon-shape .label rect,#my-svg .image-shape .label rect{opacity:0.5;background-color:white;fill:white;}#my-svg .label-icon{display:inline-block;height:1em;overflow:visible;vertical-align:-0.125em;}#my-svg .node .label-icon path{fill:currentColor;stroke:revert;stroke-width:revert;}#my-svg .node .neo-node{stroke:#999;}#my-svg [data-look="neo"].node rect,#my-svg [data-look="neo"].cluster rect,#my-svg [data-look="neo"].node polygon{stroke:url(#my-svg-gradient);filter:drop-shadow( 1px 2px 2px rgba(185,185,185,1));}#my-svg [data-look="neo"].node path{stroke:url(#my-svg-gradient);stroke-width:1px;}#my-svg [data-look="neo"].node .outer-path{filter:drop-shadow( 1px 2px 2px rgba(185,185,185,1));}#my-svg [data-look="neo"].node .neo-line path{stroke:#999;filter:none;}#my-svg [data-look="neo"].node circle{stroke:url(#my-svg-gradient);filter:drop-shadow( 1px 2px 2px rgba(185,185,185,1));}#my-svg [data-look="neo"].node circle .state-start{fill:#000000;}#my-svg [data-look="neo"].icon-shape .icon{fill:url(#my-svg-gradient);filter:drop-shadow( 1px 2px 2px rgba(185,185,185,1));}#my-svg [data-look="neo"].icon-shape .icon-neo path{stroke:url(#my-svg-gradient);filter:drop-shadow( 1px 2px 2px rgba(185,185,185,1));}#my-svg :root{--mermaid-font-family:"trebuchet ms",verdana,arial,sans-serif;}#my-svg .external&gt;*{fill:#f5f5f5!important;stroke:#666!important;color:#333!important;}#my-svg .external span{fill:#f5f5f5!important;stroke:#666!important;color:#333!important;}#my-svg .external tspan{fill:#333!important;}#my-svg .edge&gt;*{fill:#e8f4fd!important;stroke:#1a73e8!important;color:#1a3a5f!important;}#my-svg .edge span{fill:#e8f4fd!important;stroke:#1a73e8!important;color:#1a3a5f!important;}#my-svg .edge tspan{fill:#1a3a5f!important;}#my-svg .compute&gt;*{fill:#e3f2fd!important;stroke:#1976d2!important;color:#0d47a1!important;}#my-svg .compute span{fill:#e3f2fd!important;stroke:#1976d2!important;color:#0d47a1!important;}#my-svg .compute tspan{fill:#0d47a1!important;}#my-svg .stateful&gt;*{fill:#fff3e0!important;stroke:#f57c00!important;color:#bf360c!important;stroke-width:3px!important;}#my-svg .stateful span{fill:#fff3e0!important;stroke:#f57c00!important;color:#bf360c!important;stroke-width:3px!important;}#my-svg .stateful tspan{fill:#bf360c!important;}#my-svg .data&gt;*{fill:#e0f2f1!important;stroke:#00695c!important;color:#004d40!important;}#my-svg .data span{fill:#e0f2f1!important;stroke:#00695c!important;color:#004d40!important;}#my-svg .data tspan{fill:#004d40!important;}</style><g><marker id="my-svg_flowchart-v2-pointEnd" class="marker flowchart-v2" viewBox="0 0 10 10" refX="5" refY="5" markerUnits="userSpaceOnUse" markerWidth="8" markerHeight="8" orient="auto"><path d="M 0 0 L 10 5 L 0 10 z" class="arrowMarkerPath" style="stroke-width: 1; stroke-dasharray: 1, 0;"/></marker><marker id="my-svg_flowchart-v2-pointStart" class="marker flowchart-v2" viewBox="0 0 10 10" refX="4.5" refY="5" markerUnits="userSpaceOnUse" markerWidth="8" markerHeight="8" orient="auto"><path d="M 0 5 L 10 10 L 10 0 z" class="arrowMarkerPath" style="stroke-width: 1; stroke-dasharray: 1, 0;"/></marker><marker id="my-svg_flowchart-v2-pointEnd-margin" class="marker flowchart-v2" viewBox="0 0 11.5 14" refX="11.5" refY="7" markerUnits="userSpaceOnUse" markerWidth="10.5" markerHeight="14" orient="auto"><path d="M 0 0 L 11.5 7 L 0 14 z" class="arrowMarkerPath" style="stroke-width: 0; stroke-dasharray: 1, 0;"/></marker><marker id="my-svg_flowchart-v2-pointStart-margin" class="marker flowchart-v2" viewBox="0 0 11.5 14" refX="1" refY="7" markerUnits="userSpaceOnUse" markerWidth="11.5" markerHeight="14" orient="auto"><polygon points="0,7 11.5,14 11.5,0" class="arrowMarkerPath" style="stroke-width: 0; stroke-dasharray: 1, 0;"/></marker><marker id="my-svg_flowchart-v2-circleEnd" class="marker flowchart-v2" viewBox="0 0 10 10" refX="11" refY="5" markerUnits="userSpaceOnUse" markerWidth="11" markerHeight="11" orient="auto"><circle cx="5" cy="5" r="5" class="arrowMarkerPath" style="stroke-width: 1; stroke-dasharray: 1, 0;"/></marker><marker id="my-svg_flowchart-v2-circleStart" class="marker flowchart-v2" viewBox="0 0 10 10" refX="-1" refY="5" markerUnits="userSpaceOnUse" markerWidth="11" markerHeight="11" orient="auto"><circle cx="5" cy="5" r="5" class="arrowMarkerPath" style="stroke-width: 1; stroke-dasharray: 1, 0;"/></marker><marker id="my-svg_flowchart-v2-circleEnd-margin" class="marker flowchart-v2" viewBox="0 0 10 10" refY="5" refX="12.25" markerUnits="userSpaceOnUse" markerWidth="14" markerHeight="14" orient="auto"><circle cx="5" cy="5" r="5" class="arrowMarkerPath" style="stroke-width: 0; stroke-dasharray: 1, 0;"/></marker><marker id="my-svg_flowchart-v2-circleStart-margin" class="marker flowchart-v2" viewBox="0 0 10 10" refX="-2" refY="5" markerUnits="userSpaceOnUse" markerWidth="14" markerHeight="14" orient="auto"><circle cx="5" cy="5" r="5" class="arrowMarkerPath" style="stroke-width: 0; stroke-dasharray: 1, 0;"/></marker><marker id="my-svg_flowchart-v2-crossEnd" class="marker cross flowchart-v2" viewBox="0 0 11 11" refX="12" refY="5.2" markerUnits="userSpaceOnUse" markerWidth="11" markerHeight="11" orient="auto"><path d="M 1,1 l 9,9 M 10,1 l -9,9" class="arrowMarkerPath" style="stroke-width: 2; stroke-dasharray: 1, 0;"/></marker><marker id="my-svg_flowchart-v2-crossStart" class="marker cross flowchart-v2" viewBox="0 0 11 11" refX="-1" refY="5.2" markerUnits="userSpaceOnUse" markerWidth="11" markerHeight="11" orient="auto"><path d="M 1,1 l 9,9 M 10,1 l -9,9" class="arrowMarkerPath" style="stroke-width: 2; stroke-dasharray: 1, 0;"/></marker><marker id="my-svg_flowchart-v2-crossEnd-margin" class="marker cross flowchart-v2" viewBox="0 0 15 15" refX="17.7" refY="7.5" markerUnits="userSpaceOnUse" markerWidth="12" markerHeight="12" orient="auto"><path d="M 1,1 L 14,14 M 1,14 L 14,1" class="arrowMarkerPath" style="stroke-width: 2.5;"/></marker><marker id="my-svg_flowchart-v2-crossStart-margin" class="marker cross flowchart-v2" viewBox="0 0 15 15" refX="-3.5" refY="7.5" markerUnits="userSpaceOnUse" markerWidth="12" markerHeight="12" orient="auto"><path d="M 1,1 L 14,14 M 1,14 L 14,1" class="arrowMarkerPath" style="stroke-width: 2.5; stroke-dasharray: 1, 0;"/></marker><g class="root"><g class="clusters"><g class="cluster" id="my-svg-cluster" data-look="classic"><rect style="" x="910.3459320068359" y="8" width="1096.78125" height="212"/><g class="cluster-label" transform="translate(1372.502182006836, 8)"><foreignObject width="172.46875" height="24"><div xmlns="http://www.w3.org/1999/xhtml" style="display: table-cell; white-space: nowrap; line-height: 1.5;"><span class="nodeLabel"><p>EKS cluster — master AZ</p></span></div></foreignObject></g></g></g><g class="edgePaths"><path d="M187.487,122.5L195.376,122.417C203.265,122.333,219.044,122.167,234.239,122.083C249.434,122,264.046,122,271.352,122L278.658,122" id="my-svg-L_Client_R53_0" class="edge-thickness-normal edge-pattern-solid edge-thickness-normal edge-pattern-solid flowchart-link" style=";" data-edge="true" data-et="edge" data-id="L_Client_R53_0" data-points="W3sieCI6MTg3LjQ4NjU1MDgwOTQ1OTcsInkiOjEyMi41fSx7IngiOjIzNC44MjI0OTQ1MDY4MzU5NCwieSI6MTIyfSx7IngiOjI4Mi42NTg0MzIwMDY4MzU5NCwieSI6MTIyfV0=" data-look="classic" marker-end="url(#my-svg_flowchart-v2-pointEnd)"/><path d="M480.924,122L487.401,122C493.877,122,506.83,122,519.117,122C531.403,122,543.023,122,548.833,122L554.643,122" id="my-svg-L_R53_ALB_0" class="edge-thickness-normal edge-pattern-solid edge-thickness-normal edge-pattern-solid flowchart-link" style=";" data-edge="true" data-et="edge" data-id="L_R53_ALB_0" data-points="W3sieCI6NDgwLjkyNDA1NzAwNjgzNTk0LCJ5IjoxMjJ9LHsieCI6NTE5Ljc4MzQzMjAwNjgzNTksInkiOjEyMn0seyJ4Ijo1NTguNjQyODA3MDA2ODM1OSwieSI6MTIyfV0=" data-look="classic" marker-end="url(#my-svg_flowchart-v2-pointEnd)"/><path d="M805.596,122L814.325,122C823.054,122,840.513,122,857.971,122C875.429,122,892.888,122,905.117,122C917.346,122,924.346,122,927.846,122L931.346,122" id="my-svg-L_ALB_API_0" class="edge-thickness-normal edge-pattern-solid edge-thickness-normal edge-pattern-solid flowchart-link" style=";" data-edge="true" data-et="edge" data-id="L_ALB_API_0" data-points="W3sieCI6ODA1LjU5NTkzMjAwNjgzNTksInkiOjEyMn0seyJ4Ijo4NTcuOTcwOTMyMDA2ODM1OSwieSI6MTIyfSx7IngiOjkxMC4zNDU5MzIwMDY4MzU5LCJ5IjoxMjJ9LHsieCI6OTM1LjM0NTkzMjAwNjgzNTksInkiOjEyMn1d" data-look="classic" marker-end="url(#my-svg_flowchart-v2-pointEnd)"/><path d="M1140.862,122L1152.682,122C1164.502,122,1188.143,122,1211.117,122C1234.091,122,1256.398,122,1267.552,122L1278.705,122" id="my-svg-L_API_Envoy_0" class="edge-thickness-normal edge-pattern-solid edge-thickness-normal edge-pattern-solid flowchart-link" style=";" data-edge="true" data-et="edge" data-id="L_API_Envoy_0" data-points="W3sieCI6MTE0MC44NjE1NTcwMDY4MzYsInkiOjEyMn0seyJ4IjoxMjExLjc4MzQzMjAwNjgzNiwieSI6MTIyfSx7IngiOjEyODIuNzA1MzA3MDA2ODM2LCJ5IjoxMjJ9XQ==" data-look="classic" marker-end="url(#my-svg_flowchart-v2-pointEnd)"/><path d="M1542.705,109.328L1558.655,107.773C1574.604,106.219,1606.502,103.109,1637.734,101.555C1668.966,100,1699.531,100,1714.813,100L1730.096,100" id="my-svg-L_Envoy_SS_0" class="edge-thickness-normal edge-pattern-solid edge-thickness-normal edge-pattern-solid flowchart-link" style=";" data-edge="true" data-et="edge" data-id="L_Envoy_SS_0" data-points="W3sieCI6MTU0Mi43MDUzMDcwMDY4MzYsInkiOjEwOS4zMjgwNDg3MzgyNzQwOH0seyJ4IjoxNjM4LjQwMDYxOTUwNjgzNiwieSI6MTAwfSx7IngiOjE3MzQuMDk1OTMyMDA2ODM2LCJ5IjoxMDB9XQ==" data-look="classic" marker-end="url(#my-svg_flowchart-v2-pointEnd)"/><path d="M1542.705,141.008L1558.655,143.34C1574.604,145.672,1606.502,150.336,1643.977,170.427C1681.451,190.518,1724.502,226.036,1746.027,243.796L1767.552,261.555" id="my-svg-L_Envoy_DynDB_0" class="edge-thickness-normal edge-pattern-dotted edge-thickness-normal edge-pattern-solid flowchart-link" style=";" data-edge="true" data-et="edge" data-id="L_Envoy_DynDB_0" data-points="W3sieCI6MTU0Mi43MDUzMDcwMDY4MzYsInkiOjE0MS4wMDc5MjY4OTI1ODg4N30seyJ4IjoxNjM4LjQwMDYxOTUwNjgzNiwieSI6MTU1fSx7IngiOjE3NzAuNjM3NzA5MDAwMjg4MiwieSI6MjY0LjEwMDI3MzI5NjgyOTF9XQ==" data-look="classic" marker-end="url(#my-svg_flowchart-v2-pointEnd)"/></g><g class="edgeLabels"><g class="edgeLabel" transform="translate(234.82249450683594, 122)"><g class="label" data-id="L_Client_R53_0" transform="translate(-22.8359375, -12)"><foreignObject width="45.671875" height="24"><div xmlns="http://www.w3.org/1999/xhtml" class="labelBkg" style="display: table-cell; white-space: nowrap; line-height: 1.5; max-width: 200px; text-align: center;"><span class="edgeLabel"><p>HTTPS</p></span></div></foreignObject></g></g><g class="edgeLabel" transform="translate(519.7834320068359, 122)"><g class="label" data-id="L_R53_ALB_0" transform="translate(-13.859375, -12)"><foreignObject width="27.71875" height="24"><div xmlns="http://www.w3.org/1999/xhtml" class="labelBkg" style="display: table-cell; white-space: nowrap; line-height: 1.5; max-width: 200px; text-align: center;"><span class="edgeLabel"><p>DNS</p></span></div></foreignObject></g></g><g class="edgeLabel" transform="translate(857.9709320068359, 122)"><g class="label" data-id="L_ALB_API_0" transform="translate(-27.375, -12)"><foreignObject width="54.75" height="24"><div xmlns="http://www.w3.org/1999/xhtml" class="labelBkg" style="display: table-cell; white-space: nowrap; line-height: 1.5; max-width: 200px; text-align: center;"><span class="edgeLabel"><p>HTTP/2</p></span></div></foreignObject></g></g><g class="edgeLabel" transform="translate(1211.783432006836, 122)"><g class="label" data-id="L_API_Envoy_0" transform="translate(-45.921875, -12)"><foreignObject width="91.84375" height="24"><div xmlns="http://www.w3.org/1999/xhtml" class="labelBkg" style="display: table-cell; white-space: nowrap; line-height: 1.5; max-width: 200px; text-align: center;"><span class="edgeLabel"><p>gRPC / HTTP</p></span></div></foreignObject></g></g><g class="edgeLabel" transform="translate(1638.400619506836, 100)"><g class="label" data-id="L_Envoy_SS_0" transform="translate(-18.984375, -12)"><foreignObject width="37.96875" height="24"><div xmlns="http://www.w3.org/1999/xhtml" class="labelBkg" style="display: table-cell; white-space: nowrap; line-height: 1.5; max-width: 200px; text-align: center;"><span class="edgeLabel"><p>HTTP</p></span></div></foreignObject></g></g><g class="edgeLabel" transform="translate(1638.400619506836, 155)"><g class="label" data-id="L_Envoy_DynDB_0" transform="translate(-70.6953125, -12)"><foreignObject width="141.390625" height="24"><div xmlns="http://www.w3.org/1999/xhtml" class="labelBkg" style="display: table-cell; white-space: nowrap; line-height: 1.5; max-width: 200px; text-align: center;"><span class="edgeLabel"><p>6-property contract</p></span></div></foreignObject></g></g></g><g class="nodes"><g class="node default external" id="my-svg-flowchart-Client-0" data-look="classic" transform="translate(97.49327850341797, 122)"><g class="basic label-container outer-path"><path d="M-46.015625 -43.5 C-26.223006807467467 -43.5, -6.430388614934934 -43.5, 46.015625 -43.5 C46.015625 -43.5, 46.015625 -43.5, 46.015625 -43.5 C46.962446891164845 -43.469637264827355, 47.90926878232969 -43.4392745296547, 48.80267956916101 -43.41062458463963 C49.498341280855115 -43.343514935968116, 50.19400299254922 -43.2764052872966, 51.578281533276005 -43.14286560131121 C52.50688484354485 -42.992736219533164, 53.4354881538137 -42.84260683775512, 54.33102534850969 -42.697823329111344 C55.390986640687004 -42.45589408106572, 56.45094793286431 -42.2139648330201, 57.04959940006356 -42.07732654219778 C57.99765530667069 -41.795948525563794, 58.945711213277804 -41.51457050892981, 59.7228324840275 -41.28392499496409 C60.66158174653836 -40.93845658865703, 61.60033100904922 -40.59298818234998, 62.33973971225277 -40.32087894455194 C62.99466372416191 -40.03096351211032, 63.64958773607105 -39.741048079668694, 64.88956765161377 -39.192145753755234 C65.6737557608339 -38.78303531947155, 66.45794387005402 -38.37392488518787, 67.36183851217129 -37.90236362936744 C68.15714524803555 -37.42024401234538, 68.95245198389979 -36.93812439532331, 69.74639320265887 -36.45683256279507 C70.49723813120099 -35.933075644197174, 71.24808305974311 -35.409318725599285, 72.0334330763679 -34.86149255125611 C72.74142696154385 -34.29688626833683, 73.4494208467198 -33.732279985417534, 74.21356019588879 -33.12289918905735 C74.85730916549177 -32.5382634075283, 75.50105813509474 -31.953627625999253, 76.27781595125165 -31.248196729251152 C76.67164132311075 -30.84153969914229, 77.06546669496983 -30.434882669033428, 78.21771787277622 -29.24508872636729 C78.82895483493611 -28.52709501024584, 79.44019179709602 -27.809101294124396, 80.0252944873593 -27.12180638085491 C80.68663679090864 -26.235667943622104, 81.34797909445797 -25.349529506389295, 81.69311807496757 -24.88707471531439 C82.17616113329508 -24.144990862500325, 82.6592041916226 -23.40290700968626, 83.21433519073256 -22.550076721507846 C83.56960583140503 -21.9192577239405, 83.9248764720775 -21.28843872637315, 84.58269482722551 -20.120415625476333 C84.91169077965141 -19.437248490878243, 85.24068673207732 -18.754081356280153, 85.79257410118784 -17.60807542582414 C86.16802392424117 -16.680707104053894, 86.5434737472945 -15.753338782283649, 86.83900135916457 -15.023379867326902 C87.17525513238535 -14.010637077149092, 87.51150890560614 -12.99789428697128, 87.71767660709475 -12.376950018449923 C87.92673379508395 -11.579724354688677, 88.13579098307314 -10.78249869092743, 88.42498917990932 -9.67966062709968 C88.59912352714821 -8.78551755733534, 88.7732578743871 -7.891374487570998, 88.95803257852859 -6.942595433952013 C89.09041815234096 -5.9158390659517375, 89.22280372615332 -4.889082697951462, 89.31461641329012 -4.177001626984165 C89.37412886254593 -3.250047192240565, 89.43364131180174 -2.323092757496965, 89.49327540472993 -1.3942436243669998 C89.49327540472993 -0.5848781738177482, 89.49327540472993 0.22448727673150337, 89.49327540472993 1.3942436243669891 C89.44724502400948 2.111203959142639, 89.40121464328902 2.828164293918288, 89.31461641329012 4.177001626984135 C89.18641329888004 5.171319665780296, 89.05821018446997 6.165637704576459, 88.95803257852859 6.942595433951983 C88.8459109108386 7.518316500617193, 88.73378924314862 8.094037567282403, 88.42498917990932 9.679660627099672 C88.25232489194302 10.338104390290974, 88.0796606039767 10.996548153482278, 87.71767660709475 12.376950018449895 C87.44239825261255 13.206044562500749, 87.16711989813034 14.035139106551602, 86.83900135916457 15.023379867326874 C86.473932604938 15.925106748390718, 86.10886385071143 16.826833629454562, 85.79257410118785 17.60807542582413 C85.49846241019233 18.21880464515839, 85.20435071919682 18.829533864492646, 84.58269482722551 20.120415625476323 C84.05205913934712 21.062613021994366, 83.52142345146873 22.00481041851241, 83.21433519073256 22.550076721507835 C82.69419591338126 23.349150328472014, 82.17405663602997 24.148223935436192, 81.6931180749676 24.887074715314366 C81.28100114927854 25.439273851113406, 80.86888422358948 25.99147298691245, 80.0252944873593 27.121806380854903 C79.4404871884741 27.808754310603458, 78.85567988958888 28.49570224035201, 78.21771787277623 29.245088726367264 C77.78159708765473 29.695419243187576, 77.34547630253324 30.145749760007885, 76.27781595125167 31.24819672925114 C75.647139388293 31.82096049694275, 75.01646282533434 32.39372426463436, 74.21356019588882 33.12289918905732 C73.53788730841359 33.66173033640816, 72.86221442093834 34.200561483758996, 72.03343307636791 34.861492551256106 C71.53331753030989 35.21035150653313, 71.03320198425185 35.55921046181015, 69.74639320265888 36.45683256279506 C68.82264801161972 37.016812326132296, 67.89890282058057 37.576792089469535, 67.36183851217129 37.90236362936744 C66.56479872805438 38.31817877421288, 65.76775894393748 38.73399391905832, 64.88956765161379 39.19214575375523 C64.28017676888346 39.461905020601684, 63.67078588615314 39.73166428744813, 62.33973971225279 40.32087894455194 C61.445036141452505 40.65013812915559, 60.550332570652216 40.97939731375924, 59.72283248402753 41.283924994964075 C59.18104405531688 41.4447249566999, 58.63925562660624 41.60552491843573, 57.04959940006361 42.077326542197774 C56.27483548145977 42.25416135081204, 55.50007156285592 42.430996159426314, 54.33102534850971 42.697823329111344 C53.30113987343745 42.86432722583988, 52.27125439836519 43.03083112256842, 51.578281533276034 43.1428656013112 C50.55570948022071 43.24151189744662, 49.5331374271654 43.34015819358205, 48.80267956916101 43.41062458463963 C48.0972735961078 43.433245581206016, 47.39186762305459 43.4558665777724, 46.01562500000001 43.5 C46.01562500000001 43.5, 46.015625 43.5, 46.015625 43.5 C26.273564192489935 43.5, 6.531503384979871 43.5, -46.01562499999999 43.5 C-47.029482282797616 43.46748757029416, -48.04333956559524 43.43497514058833, -48.80267956916099 43.41062458463963 C-49.40517480851357 43.352502593505825, -50.00767004786615 43.294380602372016, -51.57828153327602 43.1428656013112 C-52.57520865578898 42.98169015542861, -53.57213577830193 42.82051470954602, -54.33102534850969 42.697823329111344 C-55.36942557300505 42.46081525406501, -56.40782579750041 42.22380717901868, -57.049599400063556 42.07732654219778 C-57.617898199793835 41.90865844149911, -58.18619699952411 41.73999034080044, -59.72283248402748 41.283924994964096 C-60.42856697078209 41.02420818010032, -61.13430145753671 40.76449136523654, -62.33973971225278 40.32087894455194 C-63.13331678247718 39.969585916190994, -63.92689385270158 39.61829288783004, -64.88956765161377 39.192145753755234 C-65.49232419731659 38.877688049946066, -66.09508074301941 38.563230346136905, -67.36183851217127 37.90236362936745 C-67.92772610741524 37.55931924360593, -68.49361370265919 37.2162748578444, -69.74639320265884 36.456832562795086 C-70.56647063960375 35.88478204336239, -71.38654807654865 35.312731523929706, -72.03343307636788 34.86149255125612 C-72.74152024080857 34.296811880605475, -73.44960740524927 33.73213120995482, -74.21356019588879 33.12289918905736 C-74.74883015000837 32.63678117919285, -75.28410010412796 32.150663169328354, -76.27781595125164 31.24819672925117 C-76.79968735481567 30.70932165863224, -77.32155875837971 30.170446588013316, -78.21771787277623 29.245088726367282 C-78.93604519636885 28.40130057809277, -79.65437251996147 27.557512429818257, -80.02529448735929 27.121806380854917 C-80.46789020768051 26.52876843692409, -80.91048592800173 25.935730492993265, -81.69311807496757 24.887074715314395 C-82.1223737644762 24.227622704937016, -82.55162945398482 23.568170694559633, -83.21433519073254 22.550076721507864 C-83.65464728679979 21.768258008505967, -84.09495938286703 20.986439295504066, -84.58269482722551 20.120415625476337 C-85.05595848915905 19.137673505251144, -85.52922215109261 18.15493138502595, -85.79257410118784 17.608075425824147 C-86.18557993480738 16.637343418532996, -86.57858576842692 15.666611411241847, -86.83900135916457 15.023379867326907 C-87.11289353472903 14.198460273318704, -87.38678571029347 13.373540679310498, -87.71767660709475 12.37695001844991 C-87.86161349251721 11.828056291693278, -88.00555037793968 11.279162564936644, -88.42498917990932 9.679660627099686 C-88.54917103442322 9.042013050015012, -88.67335288893715 8.404365472930335, -88.95803257852859 6.942595433952017 C-89.04951671396135 6.23306254512135, -89.14100084939412 5.523529656290684, -89.31461641329011 4.17700162698419 C-89.36452513825255 3.399632950096721, -89.41443386321497 2.6222642732092516, -89.49327540472993 1.394243624367005 C-89.49327540472993 0.464951207365388, -89.49327540472993 -0.46434120963622916, -89.49327540472993 -1.394243624366984 C-89.42206525027913 -2.5033992597402888, -89.35085509582832 -3.6125548951135933, -89.31461641329012 -4.177001626984129 C-89.18556719131 -5.177881909010683, -89.05651796932989 -6.178762191037237, -88.95803257852859 -6.942595433951997 C-88.81827203558619 -7.660236283559978, -88.67851149264379 -8.37787713316796, -88.42498917990932 -9.679660627099667 C-88.27947040146896 -10.234586797530321, -88.13395162302858 -10.789512967960977, -87.71767660709475 -12.37695001844989 C-87.49023845830368 -13.061957485260686, -87.26280030951263 -13.746964952071483, -86.8390013591646 -15.023379867326852 C-86.51498475110469 -15.823707153669774, -86.19096814304478 -16.624034440012696, -85.79257410118785 -17.608075425824126 C-85.37130992739894 -18.482839496306166, -84.95004575361003 -19.35760356678821, -84.58269482722551 -20.12041562547632 C-84.1400998148133 -20.90628788761906, -83.69750480240108 -21.692160149761804, -83.21433519073256 -22.55007672150785 C-82.88607130301337 -23.05437820424071, -82.55780741529416 -23.558679686973573, -81.69311807496757 -24.88707471531438 C-81.31390311912968 -25.395188208943985, -80.93468816329178 -25.90330170257359, -80.0252944873593 -27.121806380854903 C-79.62263978415301 -27.59478750694269, -79.21998508094671 -28.067768633030475, -78.21771787277623 -29.245088726367264 C-77.56920497519091 -29.9147315370232, -76.9206920776056 -30.58437434767914, -76.27781595125168 -31.248196729251127 C-75.69018313356905 -31.78186930635814, -75.10255031588642 -32.31554188346515, -74.21356019588883 -33.12289918905732 C-73.75609998103837 -33.487711536872986, -73.29863976618793 -33.852523884688644, -72.03343307636791 -34.861492551256106 C-71.13400604835664 -35.48889391042826, -70.23457902034535 -36.11629526960042, -69.7463932026589 -36.45683256279505 C-69.0746742702039 -36.86403252710788, -68.40295533774889 -37.27123249142071, -67.3618385121713 -37.902363629367436 C-66.77602906774531 -38.20798004129562, -66.19021962331932 -38.513596453223805, -64.88956765161379 -39.19214575375523 C-63.879503472548144 -39.63927120333828, -62.8694392934825 -40.08639665292134, -62.33973971225279 -40.320878944551936 C-61.55798460685704 -40.608572049802554, -60.77622950146129 -40.896265155053165, -59.722832484027535 -41.283924994964075 C-58.66182598211732 -41.59882615539425, -57.6008194802071 -41.913727315824424, -57.04959940006361 -42.07732654219777 C-56.067949132216846 -42.30138180996713, -55.08629886437007 -42.525437077736505, -54.33102534850971 -42.69782332911134 C-53.481824615139075 -42.83511551803266, -52.63262388176843 -42.97240770695398, -51.57828153327604 -43.1428656013112 C-50.66649595535514 -43.230824459430636, -49.75471037743424 -43.31878331755007, -48.802679569161015 -43.41062458463963 C-48.109684267034716 -43.43284759514529, -47.41668896490842 -43.45507060565096, -46.015625000000014 -43.5 C-46.01562500000001 -43.5, -46.015625 -43.5, -46.015625 -43.5" stroke="none" stroke-width="0" fill="#f5f5f5" style="fill:#f5f5f5 !important;stroke:#666 !important"/><path d="M-46.015625 -43.5 C-19.645342820744446 -43.5, 6.724939358511108 -43.5, 46.015625 -43.5 M-46.015625 -43.5 C-16.734433746038054 -43.5, 12.546757507923893 -43.5, 46.015625 -43.5 M46.015625 -43.5 C46.015625 -43.5, 46.015625 -43.5, 46.015625 -43.5 M46.015625 -43.5 C46.015625 -43.5, 46.015625 -43.5, 46.015625 -43.5 M46.015625 -43.5 C46.81044939545026 -43.474511528669744, 47.605273790900526 -43.44902305733948, 48.80267956916101 -43.41062458463963 M46.015625 -43.5 C46.84120565096886 -43.47352523541868, 47.66678630193773 -43.44705047083736, 48.80267956916101 -43.41062458463963 M48.80267956916101 -43.41062458463963 C49.47558298196623 -43.345710401691065, 50.14848639477145 -43.2807962187425, 51.578281533276005 -43.14286560131121 M48.80267956916101 -43.41062458463963 C49.78994939183177 -43.31538385221226, 50.77721921450254 -43.22014311978489, 51.578281533276005 -43.14286560131121 M51.578281533276005 -43.14286560131121 C52.28303136787808 -43.02892711346934, 52.98778120248015 -42.914988625627466, 54.33102534850969 -42.697823329111344 M51.578281533276005 -43.14286560131121 C52.5704006735697 -42.98246747270737, 53.56251981386339 -42.822069344103525, 54.33102534850969 -42.697823329111344 M54.33102534850969 -42.697823329111344 C55.29304365538522 -42.47824892832315, 56.25506196226075 -42.25867452753494, 57.04959940006356 -42.07732654219778 M54.33102534850969 -42.697823329111344 C54.96814985030018 -42.55240381920359, 55.60527435209066 -42.40698430929584, 57.04959940006356 -42.07732654219778 M57.04959940006356 -42.07732654219778 C57.84509670502066 -41.84122711773708, 58.640594009977754 -41.60512769327638, 59.7228324840275 -41.28392499496409 M57.04959940006356 -42.07732654219778 C57.70084384507095 -41.88404060937144, 58.35208829007834 -41.6907546765451, 59.7228324840275 -41.28392499496409 M59.7228324840275 -41.28392499496409 C60.5789599211139 -40.96886218416102, 61.435087358200306 -40.65379937335794, 62.33973971225277 -40.32087894455194 M59.7228324840275 -41.28392499496409 C60.422807881532385 -41.02632757818065, 61.122783279037264 -40.7687301613972, 62.33973971225277 -40.32087894455194 M62.33973971225277 -40.32087894455194 C63.336524231010365 -39.87963200666013, 64.33330874976797 -39.438385068768326, 64.88956765161377 -39.192145753755234 M62.33973971225277 -40.32087894455194 C63.08154684268768 -39.9925029328351, 63.823353973122586 -39.66412692111825, 64.88956765161377 -39.192145753755234 M64.88956765161377 -39.192145753755234 C65.75017697890921 -38.74316641895179, 66.61078630620464 -38.29418708414834, 67.36183851217129 -37.90236362936744 M64.88956765161377 -39.192145753755234 C65.79970390255933 -38.71732825460703, 66.70984015350489 -38.242510755458824, 67.36183851217129 -37.90236362936744 M67.36183851217129 -37.90236362936744 C67.99046263559941 -37.521287991539914, 68.61908675902754 -37.140212353712386, 69.74639320265887 -36.45683256279507 M67.36183851217129 -37.90236362936744 C68.16147436880638 -37.41761967389336, 68.96111022544146 -36.932875718419275, 69.74639320265887 -36.45683256279507 M69.74639320265887 -36.45683256279507 C70.37622359719157 -36.017490144487404, 71.00605399172427 -35.57814772617974, 72.0334330763679 -34.86149255125611 M69.74639320265887 -36.45683256279507 C70.45020025344382 -35.96588723148366, 71.15400730422878 -35.47494190017226, 72.0334330763679 -34.86149255125611 M72.0334330763679 -34.86149255125611 C72.62955307808541 -34.38610271330587, 73.22567307980292 -33.91071287535562, 74.21356019588879 -33.12289918905735 M72.0334330763679 -34.86149255125611 C72.87492977840473 -34.19042132454943, 73.71642648044157 -33.51935009784275, 74.21356019588879 -33.12289918905735 M74.21356019588879 -33.12289918905735 C74.7043154415594 -32.677208259611554, 75.19507068723003 -32.231517330165765, 76.27781595125165 -31.248196729251152 M74.21356019588879 -33.12289918905735 C75.00552693987063 -32.40365594646482, 75.79749368385248 -31.6844127038723, 76.27781595125165 -31.248196729251152 M76.27781595125165 -31.248196729251152 C76.71993514114054 -30.79167236703033, 77.16205433102942 -30.335148004809504, 78.21771787277622 -29.24508872636729 M76.27781595125165 -31.248196729251152 C76.86772725534631 -30.639064875154627, 77.45763855944098 -30.0299330210581, 78.21771787277622 -29.24508872636729 M78.21771787277622 -29.24508872636729 C78.7118589250168 -28.664642528983098, 79.20599997725739 -28.084196331598907, 80.0252944873593 -27.12180638085491 M78.21771787277622 -29.24508872636729 C78.8184329625131 -28.53945460030543, 79.41914805224997 -27.83382047424357, 80.0252944873593 -27.12180638085491 M80.0252944873593 -27.12180638085491 C80.53692564304063 -26.436267242799076, 81.04855679872196 -25.750728104743242, 81.69311807496757 -24.88707471531439 M80.0252944873593 -27.12180638085491 C80.36418418294092 -26.66772506226194, 80.70307387852253 -26.21364374366897, 81.69311807496757 -24.88707471531439 M81.69311807496757 -24.88707471531439 C82.14877908942641 -24.18705703499091, 82.60444010388527 -23.48703935466743, 83.21433519073256 -22.550076721507846 M81.69311807496757 -24.88707471531439 C81.99853233924652 -24.417876390168747, 82.30394660352547 -23.948678065023103, 83.21433519073256 -22.550076721507846 M83.21433519073256 -22.550076721507846 C83.58507068230769 -21.891798315176867, 83.95580617388282 -21.23351990884589, 84.58269482722551 -20.120415625476333 M83.21433519073256 -22.550076721507846 C83.63071165657612 -21.81075814371346, 84.0470881224197 -21.071439565919075, 84.58269482722551 -20.120415625476333 M84.58269482722551 -20.120415625476333 C84.94670756995401 -19.364535376575606, 85.31072031268252 -18.60865512767488, 85.79257410118784 -17.60807542582414 M84.58269482722551 -20.120415625476333 C84.84995092161405 -19.56545262711416, 85.1172070160026 -19.010489628751987, 85.79257410118784 -17.60807542582414 M85.79257410118784 -17.60807542582414 C86.04709818632107 -16.97939601465665, 86.30162227145429 -16.35071660348916, 86.83900135916457 -15.023379867326902 M85.79257410118784 -17.60807542582414 C86.2088242299483 -16.579929560137025, 86.62507435870877 -15.551783694449911, 86.83900135916457 -15.023379867326902 M86.83900135916457 -15.023379867326902 C87.10822114792535 -14.212532757927638, 87.37744093668611 -13.401685648528373, 87.71767660709475 -12.376950018449923 M86.83900135916457 -15.023379867326902 C87.12411276026586 -14.164669753542597, 87.40922416136713 -13.305959639758292, 87.71767660709475 -12.376950018449923 M87.71767660709475 -12.376950018449923 C87.88713666634224 -11.73072536808495, 88.05659672558973 -11.08450071771998, 88.42498917990932 -9.67966062709968 M87.71767660709475 -12.376950018449923 C87.86017121326208 -11.833556327580904, 88.00266581942941 -11.290162636711884, 88.42498917990932 -9.67966062709968 M88.42498917990932 -9.67966062709968 C88.6267085830135 -8.643874125570719, 88.82842798611767 -7.608087624041755, 88.95803257852859 -6.942595433952013 M88.42498917990932 -9.67966062709968 C88.55838932502263 -8.994679076073497, 88.69178947013594 -8.309697525047314, 88.95803257852859 -6.942595433952013 M88.95803257852859 -6.942595433952013 C89.09320251358876 -5.894244109948096, 89.22837244864893 -4.84589278594418, 89.31461641329012 -4.177001626984165 M88.95803257852859 -6.942595433952013 C89.09291944991622 -5.896439495895053, 89.22780632130385 -4.850283557838093, 89.31461641329012 -4.177001626984165 M89.31461641329012 -4.177001626984165 C89.36991294693082 -3.3157134809716, 89.42520948057154 -2.454425334959035, 89.49327540472993 -1.3942436243669998 M89.31461641329012 -4.177001626984165 C89.37994083494773 -3.159521030742761, 89.44526525660535 -2.1420404345013577, 89.49327540472993 -1.3942436243669998 M89.49327540472993 -1.3942436243669998 C89.49327540472993 -0.5022993692685889, 89.49327540472993 0.38964488582982204, 89.49327540472993 1.3942436243669891 M89.49327540472993 -1.3942436243669998 C89.49327540472993 -0.3127100734278565, 89.49327540472993 0.7688234775112868, 89.49327540472993 1.3942436243669891 M89.49327540472993 1.3942436243669891 C89.44961303760448 2.0743202359741715, 89.40595067047904 2.7543968475813543, 89.31461641329012 4.177001626984135 M89.49327540472993 1.3942436243669891 C89.43299799925109 2.3331128697459587, 89.37272059377224 3.2719821151249278, 89.31461641329012 4.177001626984135 M89.31461641329012 4.177001626984135 C89.19205981813712 5.127526377453682, 89.06950322298414 6.07805112792323, 88.95803257852859 6.942595433951983 M89.31461641329012 4.177001626984135 C89.18129539364642 5.211013128127571, 89.04797437400272 6.245024629271008, 88.95803257852859 6.942595433951983 M88.95803257852859 6.942595433951983 C88.78868011680689 7.812184532237436, 88.61932765508519 8.681773630522889, 88.42498917990932 9.679660627099672 M88.95803257852859 6.942595433951983 C88.84165938015303 7.540147212126293, 88.72528618177746 8.137698990300603, 88.42498917990932 9.679660627099672 M88.42498917990932 9.679660627099672 C88.23924385294745 10.387988061339211, 88.05349852598559 11.09631549557875, 87.71767660709475 12.376950018449895 M88.42498917990932 9.679660627099672 C88.26744402858294 10.280448569607664, 88.10989887725657 10.881236512115658, 87.71767660709475 12.376950018449895 M87.71767660709475 12.376950018449895 C87.51592738104782 12.984586542929335, 87.3141781550009 13.592223067408776, 86.83900135916457 15.023379867326874 M87.71767660709475 12.376950018449895 C87.53932940169001 12.914103385360686, 87.36098219628529 13.451256752271476, 86.83900135916457 15.023379867326874 M86.83900135916457 15.023379867326874 C86.55432233420328 15.726542562875807, 86.26964330924199 16.42970525842474, 85.79257410118785 17.60807542582413 M86.83900135916457 15.023379867326874 C86.46941169913678 15.936273473125484, 86.099822039109 16.849167078924093, 85.79257410118785 17.60807542582413 M85.79257410118785 17.60807542582413 C85.36948288646951 18.486633385888542, 84.94639167175117 19.365191345952955, 84.58269482722551 20.120415625476323 M85.79257410118785 17.60807542582413 C85.53086746125112 18.151514863277818, 85.26916082131437 18.694954300731506, 84.58269482722551 20.120415625476323 M84.58269482722551 20.120415625476323 C84.12076541144303 20.940618078623622, 83.65883599566054 21.76082053177092, 83.21433519073256 22.550076721507835 M84.58269482722551 20.120415625476323 C84.15773630652778 20.87497251069155, 83.73277778583007 21.62952939590678, 83.21433519073256 22.550076721507835 M83.21433519073256 22.550076721507835 C82.8270779596423 23.145007821589434, 82.43982072855205 23.73993892167103, 81.6931180749676 24.887074715314366 M83.21433519073256 22.550076721507835 C82.69606128428563 23.34628461784068, 82.17778737783871 24.142492514173522, 81.6931180749676 24.887074715314366 M81.6931180749676 24.887074715314366 C81.22638245799124 25.512457921573258, 80.75964684101487 26.137841127832154, 80.0252944873593 27.121806380854903 M81.6931180749676 24.887074715314366 C81.10778837684657 25.671363186164047, 80.52245867872556 26.455651657013725, 80.0252944873593 27.121806380854903 M80.0252944873593 27.121806380854903 C79.63987228159054 27.57454523489568, 79.25445007582178 28.027284088936455, 78.21771787277623 29.245088726367264 M80.0252944873593 27.121806380854903 C79.34681205888383 27.918790448086046, 78.66832963040837 28.71577451531719, 78.21771787277623 29.245088726367264 M78.21771787277623 29.245088726367264 C77.4581835599079 30.029370263330637, 76.69864924703954 30.813651800294014, 76.27781595125167 31.24819672925114 M78.21771787277623 29.245088726367264 C77.5430174308211 29.941772326622413, 76.86831698886597 30.638455926877562, 76.27781595125167 31.24819672925114 M76.27781595125167 31.24819672925114 C75.68681636517682 31.784926916332147, 75.09581677910198 32.32165710341315, 74.21356019588882 33.12289918905732 M76.27781595125167 31.24819672925114 C75.85175352204867 31.63513535445917, 75.42569109284567 32.0220739796672, 74.21356019588882 33.12289918905732 M74.21356019588882 33.12289918905732 C73.35430590659377 33.80813161905319, 72.49505161729871 34.49336404904906, 72.03343307636791 34.861492551256106 M74.21356019588882 33.12289918905732 C73.35349581673583 33.8087776441575, 72.49343143758284 34.494656099257675, 72.03343307636791 34.861492551256106 M72.03343307636791 34.861492551256106 C71.20264359756057 35.44101532737522, 70.3718541187532 36.02053810349433, 69.74639320265888 36.45683256279506 M72.03343307636791 34.861492551256106 C71.36733832057615 35.326131418119196, 70.70124356478439 35.79077028498228, 69.74639320265888 36.45683256279506 M69.74639320265888 36.45683256279506 C69.00598772653024 36.90567071352978, 68.26558225040161 37.35450886426451, 67.36183851217129 37.90236362936744 M69.74639320265888 36.45683256279506 C69.08779316392206 36.856079776640755, 68.42919312518524 37.255326990486445, 67.36183851217129 37.90236362936744 M67.36183851217129 37.90236362936744 C66.7457730924956 38.22376456420352, 66.12970767281989 38.5451654990396, 64.88956765161379 39.19214575375523 M67.36183851217129 37.90236362936744 C66.57488719303618 38.312915628493855, 65.78793587390106 38.723467627620266, 64.88956765161379 39.19214575375523 M64.88956765161379 39.19214575375523 C64.01791122325898 39.57800219781865, 63.146254794904166 39.96385864188207, 62.33973971225279 40.32087894455194 M64.88956765161379 39.19214575375523 C64.28264838763279 39.460810908299315, 63.675729123651806 39.7294760628434, 62.33973971225279 40.32087894455194 M62.33973971225279 40.32087894455194 C61.57459185365779 40.60246042946417, 60.8094439950628 40.8840419143764, 59.72283248402753 41.283924994964075 M62.33973971225279 40.32087894455194 C61.480035794932505 40.637257933141704, 60.62033187761221 40.953636921731466, 59.72283248402753 41.283924994964075 M59.72283248402753 41.283924994964075 C58.846528500599014 41.544007417432184, 57.9702245171705 41.8040898399003, 57.04959940006361 42.077326542197774 M59.72283248402753 41.283924994964075 C58.79396365704425 41.55960838708074, 57.865094830060976 41.83529177919742, 57.04959940006361 42.077326542197774 M57.04959940006361 42.077326542197774 C56.225464249406805 42.265430012350734, 55.401329098750004 42.453533482503694, 54.33102534850971 42.697823329111344 M57.04959940006361 42.077326542197774 C56.33066094690467 42.24141955261945, 55.61172249374574 42.40551256304113, 54.33102534850971 42.697823329111344 M54.33102534850971 42.697823329111344 C53.55795982330166 42.82280656801429, 52.784894298093604 42.94778980691724, 51.578281533276034 43.1428656013112 M54.33102534850971 42.697823329111344 C53.362396533158424 42.85442372414869, 52.39376771780714 43.011024119186025, 51.578281533276034 43.1428656013112 M51.578281533276034 43.1428656013112 C50.965169545235646 43.202011777422406, 50.35205755719525 43.26115795353362, 48.80267956916101 43.41062458463963 M51.578281533276034 43.1428656013112 C50.52343538664387 43.24462534043871, 49.4685892400117 43.34638507956621, 48.80267956916101 43.41062458463963 M48.80267956916101 43.41062458463963 C48.02955371808329 43.43541722588551, 47.256427867005584 43.4602098671314, 46.01562500000001 43.5 M48.80267956916101 43.41062458463963 C47.88048692351268 43.44019750784648, 46.95829427786434 43.46977043105333, 46.01562500000001 43.5 M46.01562500000001 43.5 C46.01562500000001 43.5, 46.01562500000001 43.5, 46.015625 43.5 M46.01562500000001 43.5 C46.01562500000001 43.5, 46.015625 43.5, 46.015625 43.5 M46.015625 43.5 C19.28090313418532 43.5, -7.453818731629362 43.5, -46.01562499999999 43.5 M46.015625 43.5 C20.113302686746046 43.5, -5.789019626507908 43.5, -46.01562499999999 43.5 M-46.01562499999999 43.5 C-47.11754035735405 43.464663719237784, -48.21945571470811 43.42932743847557, -48.80267956916099 43.41062458463963 M-46.01562499999999 43.5 C-46.62676470499079 43.48040193917222, -47.23790440998159 43.460803878344436, -48.80267956916099 43.41062458463963 M-48.80267956916099 43.41062458463963 C-49.80681675902402 43.3137566775852, -50.81095394888703 43.216888770530765, -51.57828153327602 43.1428656013112 M-48.80267956916099 43.41062458463963 C-49.751247080850376 43.31911741760629, -50.69981459253975 43.22761025057296, -51.57828153327602 43.1428656013112 M-51.57828153327602 43.1428656013112 C-52.51716462435868 42.991074264292074, -53.456047715441336 42.83928292727295, -54.33102534850969 42.697823329111344 M-51.57828153327602 43.1428656013112 C-52.18519856407711 43.04474396248315, -52.7921155948782 42.9466223236551, -54.33102534850969 42.697823329111344 M-54.33102534850969 42.697823329111344 C-55.28567160673282 42.47993155032094, -56.240317864955955 42.26203977153053, -57.049599400063556 42.07732654219778 M-54.33102534850969 42.697823329111344 C-55.09671288350942 42.523060145825774, -55.86240041850915 42.34829696254021, -57.049599400063556 42.07732654219778 M-57.049599400063556 42.07732654219778 C-57.61353638129872 41.909953006332806, -58.177473362533895 41.74257947046783, -59.72283248402748 41.283924994964096 M-57.049599400063556 42.07732654219778 C-57.79938754838755 41.85479335549353, -58.54917569671154 41.63226016878927, -59.72283248402748 41.283924994964096 M-59.72283248402748 41.283924994964096 C-60.62912394732214 40.95040135880521, -61.535415410616814 40.61687772264632, -62.33973971225278 40.32087894455194 M-59.72283248402748 41.283924994964096 C-60.37972506941781 41.04218245129196, -61.03661765480813 40.800439907619825, -62.33973971225278 40.32087894455194 M-62.33973971225278 40.32087894455194 C-62.874412310565816 40.08419524577787, -63.409084908878846 39.84751154700379, -64.88956765161377 39.192145753755234 M-62.33973971225278 40.32087894455194 C-63.03193716646156 40.014463664881646, -63.72413462067034 39.70804838521135, -64.88956765161377 39.192145753755234 M-64.88956765161377 39.192145753755234 C-65.64046099014777 38.80040518001219, -66.39135432868176 38.40866460626914, -67.36183851217127 37.90236362936745 M-64.88956765161377 39.192145753755234 C-65.46787432434657 38.89044353301364, -66.04618099707936 38.58874131227204, -67.36183851217127 37.90236362936745 M-67.36183851217127 37.90236362936745 C-67.8801850253437 37.58813892694009, -68.39853153851614 37.27391422451273, -69.74639320265884 36.456832562795086 M-67.36183851217127 37.90236362936745 C-67.85150484325042 37.6055250218685, -68.34117117432957 37.308686414369554, -69.74639320265884 36.456832562795086 M-69.74639320265884 36.456832562795086 C-70.25885242321914 36.09936319453433, -70.77131164377946 35.741893826273575, -72.03343307636788 34.86149255125612 M-69.74639320265884 36.456832562795086 C-70.65396517169022 35.82374964535612, -71.5615371407216 35.19066672791716, -72.03343307636788 34.86149255125612 M-72.03343307636788 34.86149255125612 C-72.79720275322573 34.25240655872667, -73.5609724300836 33.643320566197225, -74.21356019588879 33.12289918905736 M-72.03343307636788 34.86149255125612 C-72.79082183569578 34.25749517065346, -73.54821059502368 33.65349779005081, -74.21356019588879 33.12289918905736 M-74.21356019588879 33.12289918905736 C-75.02899864801915 32.382339562151714, -75.8444371001495 31.641779935246074, -76.27781595125164 31.24819672925117 M-74.21356019588879 33.12289918905736 C-74.80547964920571 32.58533360288545, -75.39739910252263 32.04776801671354, -76.27781595125164 31.24819672925117 M-76.27781595125164 31.24819672925117 C-77.04247335855732 30.458625176667386, -77.80713076586298 29.669053624083606, -78.21771787277623 29.245088726367282 M-76.27781595125164 31.24819672925117 C-76.89286471057575 30.61310838880678, -77.50791346989986 29.978020048362392, -78.21771787277623 29.245088726367282 M-78.21771787277623 29.245088726367282 C-78.77405858180525 28.591579272858667, -79.33039929083425 27.93806981935005, -80.02529448735929 27.121806380854917 M-78.21771787277623 29.245088726367282 C-78.8966226003137 28.447608602628407, -79.57552732785118 27.65012847888953, -80.02529448735929 27.121806380854917 M-80.02529448735929 27.121806380854917 C-80.48393738811201 26.5072666770741, -80.94258028886472 25.892726973293282, -81.69311807496757 24.887074715314395 M-80.02529448735929 27.121806380854917 C-80.61789566615806 26.327774788342563, -81.21049684495685 25.533743195830212, -81.69311807496757 24.887074715314395 M-81.69311807496757 24.887074715314395 C-81.99953760933082 24.41633202536647, -82.30595714369406 23.945589335418546, -83.21433519073254 22.550076721507864 M-81.69311807496757 24.887074715314395 C-82.10653727233998 24.25195180955182, -82.51995646971237 23.616828903789248, -83.21433519073254 22.550076721507864 M-83.21433519073254 22.550076721507864 C-83.61288497372792 21.84241122425783, -84.01143475672329 21.1347457270078, -84.58269482722551 20.120415625476337 M-83.21433519073254 22.550076721507864 C-83.5594198097415 21.937344036850632, -83.90450442875046 21.324611352193404, -84.58269482722551 20.120415625476337 M-84.58269482722551 20.120415625476337 C-85.03155556959767 19.18834668985918, -85.48041631196985 18.256277754242028, -85.79257410118784 17.608075425824147 M-84.58269482722551 20.120415625476337 C-84.88336019559098 19.496077554857116, -85.18402556395647 18.8717394842379, -85.79257410118784 17.608075425824147 M-85.79257410118784 17.608075425824147 C-86.15748583226247 16.706736394981444, -86.5223975633371 15.805397364138743, -86.83900135916457 15.023379867326907 M-85.79257410118784 17.608075425824147 C-86.17501152543399 16.66344759401157, -86.55744894968014 15.718819762198988, -86.83900135916457 15.023379867326907 M-86.83900135916457 15.023379867326907 C-87.07778465437231 14.304202627112696, -87.31656794958005 13.585025386898485, -87.71767660709475 12.37695001844991 M-86.83900135916457 15.023379867326907 C-87.18817221954389 13.971732868685915, -87.53734307992322 12.920085870044925, -87.71767660709475 12.37695001844991 M-87.71767660709475 12.37695001844991 C-87.96605800657301 11.42976409305977, -88.21443940605128 10.482578167669631, -88.42498917990932 9.679660627099686 M-87.71767660709475 12.37695001844991 C-87.90373685297897 11.667421661872723, -88.08979709886317 10.957893305295535, -88.42498917990932 9.679660627099686 M-88.42498917990932 9.679660627099686 C-88.6021720602443 8.76986398419458, -88.7793549405793 7.860067341289474, -88.95803257852859 6.942595433952017 M-88.42498917990932 9.679660627099686 C-88.59426036453445 8.810488869527195, -88.76353154915958 7.941317111954704, -88.95803257852859 6.942595433952017 M-88.95803257852859 6.942595433952017 C-89.08549699552727 5.954006586406339, -89.21296141252594 4.965417738860661, -89.31461641329011 4.17700162698419 M-88.95803257852859 6.942595433952017 C-89.06194102825938 6.136702016884132, -89.1658494779902 5.330808599816247, -89.31461641329011 4.17700162698419 M-89.31461641329011 4.17700162698419 C-89.37585538723043 3.22315517665383, -89.43709436117074 2.2693087263234704, -89.49327540472993 1.394243624367005 M-89.31461641329011 4.17700162698419 C-89.3749926172775 3.236593515086012, -89.43536882126489 2.296185403187835, -89.49327540472993 1.394243624367005 M-89.49327540472993 1.394243624367005 C-89.49327540472993 0.6912854301440132, -89.49327540472993 -0.011672764078978659, -89.49327540472993 -1.394243624366984 M-89.49327540472993 1.394243624367005 C-89.49327540472993 0.6298204361351557, -89.49327540472993 -0.1346027520966937, -89.49327540472993 -1.394243624366984 M-89.49327540472993 -1.394243624366984 C-89.43755927380877 -2.262067336715368, -89.38184314288762 -3.129891049063752, -89.31461641329012 -4.177001626984129 M-89.49327540472993 -1.394243624366984 C-89.45023379750111 -2.0646513995157973, -89.4071921902723 -2.735059174664611, -89.31461641329012 -4.177001626984129 M-89.31461641329012 -4.177001626984129 C-89.17915654098755 -5.227601646985576, -89.04369666868497 -6.278201666987024, -88.95803257852859 -6.942595433951997 M-89.31461641329012 -4.177001626984129 C-89.24063259417484 -4.750805518284769, -89.16664877505954 -5.324609409585408, -88.95803257852859 -6.942595433951997 M-88.95803257852859 -6.942595433951997 C-88.84988565785571 -7.4979070147474465, -88.74173873718283 -8.053218595542896, -88.42498917990932 -9.679660627099667 M-88.95803257852859 -6.942595433951997 C-88.78675377952976 -7.8220758670239485, -88.61547498053093 -8.7015563000959, -88.42498917990932 -9.679660627099667 M-88.42498917990932 -9.679660627099667 C-88.28177544169338 -10.225796680143812, -88.13856170347745 -10.77193273318796, -87.71767660709475 -12.37695001844989 M-88.42498917990932 -9.679660627099667 C-88.25857612549838 -10.314265727442605, -88.09216307108744 -10.948870827785544, -87.71767660709475 -12.37695001844989 M-87.71767660709475 -12.37695001844989 C-87.51070745588609 -13.000308125834364, -87.30373830467742 -13.62366623321884, -86.8390013591646 -15.023379867326852 M-87.71767660709475 -12.37695001844989 C-87.40797261660173 -13.309729093185112, -87.09826862610872 -14.242508167920334, -86.8390013591646 -15.023379867326852 M-86.8390013591646 -15.023379867326852 C-86.561751007073 -15.708193597264001, -86.2845006549814 -16.39300732720115, -85.79257410118785 -17.608075425824126 M-86.8390013591646 -15.023379867326852 C-86.62633286178375 -15.54867516752324, -86.41366436440289 -16.07397046771963, -85.79257410118785 -17.608075425824126 M-85.79257410118785 -17.608075425824126 C-85.41753260737775 -18.38685711232325, -85.04249111356765 -19.16563879882237, -84.58269482722551 -20.12041562547632 M-85.79257410118785 -17.608075425824126 C-85.44063672819968 -18.338880911087536, -85.08869935521149 -19.069686396350942, -84.58269482722551 -20.12041562547632 M-84.58269482722551 -20.12041562547632 C-84.24287780968218 -20.72379515032884, -83.90306079213886 -21.327174675181364, -83.21433519073256 -22.55007672150785 M-84.58269482722551 -20.12041562547632 C-84.0958331973915 -20.984887749332536, -83.6089715675575 -21.849359873188753, -83.21433519073256 -22.55007672150785 M-83.21433519073256 -22.55007672150785 C-82.73130666812142 -23.29213824355817, -82.24827814551028 -24.03419976560849, -81.69311807496757 -24.88707471531438 M-83.21433519073256 -22.55007672150785 C-82.80485901919302 -23.179142080740455, -82.39538284765348 -23.80820743997306, -81.69311807496757 -24.88707471531438 M-81.69311807496757 -24.88707471531438 C-81.35362574227541 -25.341963512734107, -81.01413340958325 -25.796852310153838, -80.0252944873593 -27.121806380854903 M-81.69311807496757 -24.88707471531438 C-81.08774862940218 -25.69821462208097, -80.48237918383678 -26.509354528847567, -80.0252944873593 -27.121806380854903 M-80.0252944873593 -27.121806380854903 C-79.4609661848881 -27.784698516127673, -78.89663788241687 -28.447590651400443, -78.21771787277623 -29.245088726367264 M-80.0252944873593 -27.121806380854903 C-79.61813044643606 -27.600084431613606, -79.2109664055128 -28.07836248237231, -78.21771787277623 -29.245088726367264 M-78.21771787277623 -29.245088726367264 C-77.81763677044398 -29.65820531179469, -77.41755566811175 -30.07132189722211, -76.27781595125168 -31.248196729251127 M-78.21771787277623 -29.245088726367264 C-77.55834253330525 -29.925947900093217, -76.89896719383427 -30.60680707381917, -76.27781595125168 -31.248196729251127 M-76.27781595125168 -31.248196729251127 C-75.51866293208757 -31.937639415167773, -74.75950991292346 -32.62708210108442, -74.21356019588883 -33.12289918905732 M-76.27781595125168 -31.248196729251127 C-75.63972827430541 -31.827691074578958, -75.00164059735914 -32.40718541990679, -74.21356019588883 -33.12289918905732 M-74.21356019588883 -33.12289918905732 C-73.58222736251896 -33.62637032319751, -72.95089452914911 -34.12984145733771, -72.03343307636791 -34.861492551256106 M-74.21356019588883 -33.12289918905732 C-73.63677852244025 -33.58286722482762, -73.05999684899169 -34.042835260597926, -72.03343307636791 -34.861492551256106 M-72.03343307636791 -34.861492551256106 C-71.36103588534047 -35.330527724111576, -70.68863869431304 -35.79956289696705, -69.7463932026589 -36.45683256279505 M-72.03343307636791 -34.861492551256106 C-71.23786282106595 -35.41644792167347, -70.44229256576398 -35.97140329209084, -69.7463932026589 -36.45683256279505 M-69.7463932026589 -36.45683256279505 C-68.8305602361669 -37.0120158891144, -67.91472726967493 -37.56719921543375, -67.3618385121713 -37.902363629367436 M-69.7463932026589 -36.45683256279505 C-69.23010266738392 -36.7698109193387, -68.71381213210894 -37.082789275882355, -67.3618385121713 -37.902363629367436 M-67.3618385121713 -37.902363629367436 C-66.5065931448199 -38.34854458970386, -65.65134777746849 -38.79472555004028, -64.88956765161379 -39.19214575375523 M-67.3618385121713 -37.902363629367436 C-66.73196092773071 -38.23097036171425, -66.1020833432901 -38.559577094061055, -64.88956765161379 -39.19214575375523 M-64.88956765161379 -39.19214575375523 C-64.31289539524894 -39.44742145527325, -63.73622313888411 -39.70269715679127, -62.33973971225279 -40.320878944551936 M-64.88956765161379 -39.19214575375523 C-64.1747485005826 -39.50857498756001, -63.459929349551395 -39.8250042213648, -62.33973971225279 -40.320878944551936 M-62.33973971225279 -40.320878944551936 C-61.519988709280696 -40.622554891340876, -60.7002377063086 -40.92423083812981, -59.722832484027535 -41.283924994964075 M-62.33973971225279 -40.320878944551936 C-61.698696313981394 -40.55678884085603, -61.057652915709994 -40.792698737160116, -59.722832484027535 -41.283924994964075 M-59.722832484027535 -41.283924994964075 C-58.92332414128543 -41.521214874385, -58.12381579854332 -41.75850475380593, -57.04959940006361 -42.07732654219777 M-59.722832484027535 -41.283924994964075 C-59.15269908465138 -41.453137595207636, -58.58256568527523 -41.62235019545119, -57.04959940006361 -42.07732654219777 M-57.04959940006361 -42.07732654219777 C-56.02163974084197 -42.31195162635143, -54.993680081620326 -42.54657671050509, -54.33102534850971 -42.69782332911134 M-57.04959940006361 -42.07732654219777 C-56.0737589963886 -42.30005574638284, -55.09791859271358 -42.52278495056791, -54.33102534850971 -42.69782332911134 M-54.33102534850971 -42.69782332911134 C-53.67263019630104 -42.80426755138977, -53.01423504409238 -42.910711773668204, -51.57828153327604 -43.1428656013112 M-54.33102534850971 -42.69782332911134 C-53.42776548322867 -42.843855379245106, -52.52450561794763 -42.98988742937887, -51.57828153327604 -43.1428656013112 M-51.57828153327604 -43.1428656013112 C-50.824343764494714 -43.21559707112271, -50.07040599571339 -43.28832854093422, -48.802679569161015 -43.41062458463963 M-51.57828153327604 -43.1428656013112 C-50.511718401900104 -43.245755663865204, -49.44515527052417 -43.34864572641921, -48.802679569161015 -43.41062458463963 M-48.802679569161015 -43.41062458463963 C-48.18774976574913 -43.4303441865468, -47.57281996233725 -43.45006378845397, -46.015625000000014 -43.5 M-48.802679569161015 -43.41062458463963 C-47.83642230656784 -43.441610574345326, -46.87016504397467 -43.472596564051024, -46.015625000000014 -43.5 M-46.015625000000014 -43.5 C-46.01562500000001 -43.5, -46.01562500000001 -43.5, -46.015625 -43.5 M-46.015625000000014 -43.5 C-46.01562500000001 -43.5, -46.01562500000001 -43.5, -46.015625 -43.5" stroke="#666" stroke-width="1.3" fill="none" stroke-dasharray="0 0" style="fill:#f5f5f5 !important;stroke:#666 !important"/></g><g class="label" style="color:#333 !important" transform="translate(-71.140625, -36)"><rect/><foreignObject width="142.28125" height="72"><div style="color: rgb(51, 51, 51) !important; display: table-cell; white-space: nowrap; line-height: 1.5; max-width: 200px; text-align: center;" xmlns="http://www.w3.org/1999/xhtml"><span style="color:#333 !important" class="nodeLabel"><p>Customer<br />(stateful + stateless<br />traffic)</p></span></div></foreignObject></g></g><g class="node default edge" id="my-svg-flowchart-R53-1" data-look="classic" transform="translate(381.79124450683594, 122)"><rect class="basic label-container" style="fill:#e8f4fd !important;stroke:#1a73e8 !important" x="-99.1328125" y="-51" width="198.265625" height="102"/><g class="label" style="color:#1a3a5f !important" transform="translate(-69.1328125, -36)"><rect/><foreignObject width="138.265625" height="72"><div style="color: rgb(26, 58, 95) !important; display: table-cell; white-space: nowrap; line-height: 1.5; max-width: 200px; text-align: center;" xmlns="http://www.w3.org/1999/xhtml"><span style="color:#1a3a5f !important" class="nodeLabel"><p>Route 53<br />weighted A-records<br />+ health checks</p></span></div></foreignObject></g></g><g class="node default edge" id="my-svg-flowchart-ALB-2" data-look="classic" transform="translate(682.1193695068359, 122)"><rect class="basic label-container" style="fill:#e8f4fd !important;stroke:#1a73e8 !important" x="-123.4765625" y="-51" width="246.953125" height="102"/><g class="label" style="color:#1a3a5f !important" transform="translate(-93.4765625, -36)"><rect/><foreignObject width="186.953125" height="72"><div style="color: rgb(26, 58, 95) !important; display: table-cell; white-space: nowrap; line-height: 1.5; max-width: 200px; text-align: center;" xmlns="http://www.w3.org/1999/xhtml"><span style="color:#1a3a5f !important" class="nodeLabel"><p>Application Load Balancer<br />TLS termination<br />host routing</p></span></div></foreignObject></g></g><g class="node default compute" id="my-svg-flowchart-API-3" data-look="classic" transform="translate(1038.103744506836, 122)"><rect class="basic label-container" style="fill:#e3f2fd !important;stroke:#1976d2 !important" x="-102.7578125" y="-51" width="205.515625" height="102"/><g class="label" style="color:#0d47a1 !important" transform="translate(-72.7578125, -36)"><rect/><foreignObject width="145.515625" height="72"><div style="color: rgb(13, 71, 161) !important; display: table-cell; white-space: nowrap; line-height: 1.5; max-width: 200px; text-align: center;" xmlns="http://www.w3.org/1999/xhtml"><span style="color:#0d47a1 !important" class="nodeLabel"><p>API tier<br />auth · business logic<br />(stateless · HPA)</p></span></div></foreignObject></g></g><g class="node default compute" id="my-svg-flowchart-Envoy-4" data-look="classic" transform="translate(1412.705307006836, 122)"><rect class="basic label-container" style="fill:#e3f2fd !important;stroke:#1976d2 !important" x="-130" y="-63" width="260" height="126"/><g class="label" style="color:#0d47a1 !important" transform="translate(-100, -48)"><rect/><foreignObject width="200" height="96"><div style="color: rgb(13, 71, 161) !important; display: table; white-space: break-spaces; line-height: 1.5; max-width: 200px; text-align: center; width: 200px;" xmlns="http://www.w3.org/1999/xhtml"><span style="color:#0d47a1 !important" class="nodeLabel"><p>Envoy mesh<br />east-west · retries · circuit breaks<br />placement-table lookup</p></span></div></foreignObject></g></g><g class="node default stateful" id="my-svg-flowchart-SS-5" data-look="classic" transform="translate(1858.111557006836, 100)"><rect class="basic label-container" style="fill:#fff3e0 !important;stroke:#f57c00 !important;stroke-width:3px !important" x="-124.015625" y="-51" width="248.03125" height="102"/><g class="label" style="color:#bf360c !important" transform="translate(-94.015625, -36)"><rect/><foreignObject width="188.03125" height="72"><div style="color: rgb(191, 54, 12) !important; display: table-cell; white-space: nowrap; line-height: 1.5; max-width: 200px; text-align: center;" xmlns="http://www.w3.org/1999/xhtml"><span style="color:#bf360c !important" class="nodeLabel"><p>StatefulSet pods<br />LevelDB · 1:1 pod-to-node<br />2 TB EBS each</p></span></div></foreignObject></g></g><g class="node default data" id="my-svg-flowchart-DynDB-6" data-look="classic" transform="translate(1858.111557006836, 321.14925384521484)"><path d="M0,15.09950002475125 a95.3203125,15.09950002475125 0,0,0 190.640625,0 a95.3203125,15.09950002475125 0,0,0 -190.640625,0 l0,102.09950002475125 a95.3203125,15.09950002475125 0,0,0 190.640625,0 l0,-102.09950002475125" class="basic label-container outer-path" style="fill:#e0f2f1 !important;stroke:#00695c !important" transform="translate(-95.3203125, -66.14925003712688)"/><g class="label" style="color:#004d40 !important" transform="translate(-87.8203125, -26)"><rect/><foreignObject width="175.640625" height="72"><div style="color: rgb(0, 77, 64) !important; display: table-cell; white-space: nowrap; line-height: 1.5; max-width: 200px; text-align: center;" xmlns="http://www.w3.org/1999/xhtml"><span style="color:#004d40 !important" class="nodeLabel"><p>DynamoDB Global Tables<br />placement table<br />tenant → pod ordinal</p></span></div></foreignObject></g></g></g></g></g><defs><filter id="my-svg-drop-shadow" height="130%" width="130%"><feDropShadow dx="4" dy="4" stdDeviation="0" flood-opacity="0.06" flood-color="#000000"/></filter></defs><defs><filter id="my-svg-drop-shadow-small" height="150%" width="150%"><feDropShadow dx="2" dy="2" stdDeviation="0" flood-opacity="0.06" flood-color="#000000"/></filter></defs><linearGradient id="my-svg-gradient" gradientUnits="objectBoundingBox" x1="0%" y1="0%" x2="100%" y2="0%"><stop offset="0%" stop-color="hsl(0, 0%, 83.3333333333%)" stop-opacity="1"/><stop offset="100%" stop-color="hsl(0, 0%, 88.9215686275%)" stop-opacity="1"/></linearGradient></svg>